<?xml version="1.0" encoding="utf-8"?>
<!-- Generator: Adobe Illustrator 24.2.0, SVG Export Plug-In . SVG Version: 6.00 Build 0)  -->
<svg version="1.1" id="Layer_1" xmlns="http://www.w3.org/2000/svg" xmlns:xlink="http://www.w3.org/1999/xlink" x="0px" y="0px"
	 viewBox="0 0 324 288" enable-background="new 0 0 324 288" xml:space="preserve">
<g>
	<g>
		<path fill="#ED1A3B" d="M-2517.559,15.555c23.79-10.14,50.84-11.97,75.87-5.66c39.19,9.61,72.5,38.94,88.21,75.95
			c-78.12,0.02-156.23,0.02-234.35,0C-2574.449,54.655-2548.909,28.715-2517.559,15.555z"/>
		<path fill="#ED1A3B" d="M-2592.009,95.975c80.21,0.02,160.41,0,240.62,0.02c4.63,13.9,6.76,28.58,6.4,43.22
			c-16.61,0.06-33.21,0.03-49.82,0.02c2.22-2.92,4.46-5.83,6.69-8.74c-31.29-0.02-62.57,0-93.86-0.01c0-5.71,0-11.42,0.01-17.13
			c-35.16-5.51-70.33-10.98-105.49-16.46C-2588.989,96.635-2590.499,96.315-2592.009,95.975z"/>
		<path fill="#ED1A3B" d="M-2400.989,149.775c18.66-0.18,37.31,0.11,55.97-0.15c0.24,11.13-2.36,22.15-6.36,32.48
			c-22.99,0.04-45.98,0.02-68.97,0.01C-2413.939,171.305-2407.359,160.605-2400.989,149.775z"/>
		<path fill="#ED1A3B" d="M-2424.489,190.485c22.96,0,45.92-0.01,68.88,0.01c-4.71,11.72-11.54,22.46-19.36,32.34
			c-23.71,0.03-47.41,0.02-71.12,0.01C-2438.909,212.045-2431.729,201.245-2424.489,190.485z"/>
		<path fill="#ED1A3B" d="M-2450.339,231.355c22.28-0.02,44.56-0.03,66.84,0c-23.75,24.19-57.62,37.91-91.52,37.01
			C-2466.839,255.995-2458.529,243.715-2450.339,231.355z"/>
	</g>
	<g>
		<path fill="#0066B3" d="M-2293.029,88.255c8.09-0.94,16.26-0.81,24.4-0.74c8.02,0.2,16.1,0.59,23.94,2.42
			c3.08,0.78,6.29,1.76,8.67,3.98c2.73,2.56,2.59,7.47-0.37,9.81c-2.34,2.39-6.06,3.52-7.44,6.74c1.41,7.13,5.57,13.34,8.4,19.96
			c3.04,5.89,4.7,12.67,9.18,17.71c1.74,2.37,4.92,0.86,6.69-0.69c3.17-2.91,4.55-7.17,7.26-10.45c2.19-2.56,3.06-5.87,4.43-8.86
			c2.16-5.2,4.73-10.27,6.23-15.7c0.79-2.43-0.05-5.25-2.16-6.7c-2.59-2.18-6.74-3.42-7.16-7.29c-0.78-3.43,2.02-6.23,4.95-7.41
			c6.73-2.84,14.18-3.19,21.39-3.51c8.79-0.06,17.69-0.34,26.38,1.33c3.14,0.74,6.78,1.66,8.57,4.63c1.79,3.59,0.85,9.1-3.26,10.62
			c-4.65,1.5-10.11,0.73-14.24,3.71c-4.15,3.78-5.19,9.59-7.77,14.35c-14.26,26.05-28.55,52.08-42.8,78.13
			c-2.77,5.03-4.98,10.73-9.69,14.33c-4.74,3.58-11.28,3.26-16.67,1.52c-5.27-1.75-8.59-6.58-10.94-11.33
			c-13.6-27.72-27.01-55.54-40.68-83.23c-2.67-5.62-6.65-11.56-13.37-12.43c-6.9-0.24-8.56-10.07-3.93-14.13
			C-2307.579,90.205-2299.959,89.225-2293.029,88.255z"/>
		<path fill="#0066B3" d="M-2122.049,90.215c7.42-1.07,15.33-1.56,22.44,1.29c3.69,1.42,6.84,4.8,6.89,8.93
			c0.4,4.74-3.04,8.71-6.89,10.98c-7.23,4.28-15.68,5.91-23.93,6.85c-6.33,0.63-13.41,0.8-18.82-3.07
			c-5.21-3.74-6.76-12.63-1.46-16.95C-2137.759,93.145-2129.659,91.525-2122.049,90.215z"/>
		<path fill="#0066B3" d="M-1443.159,95.975c11.49-3.71,23.52-5.49,35.53-6.52c3.06-0.25,7.34-0.04,8.54,3.44
			c1.08,4.14,0.41,8.48,0.23,12.7c-2.36,30.16-1.41,60.44-1.61,90.66c2.36,2.54,5.58,3.85,8.55,5.51c4.5,2.44,3.89,9.69-0.35,12.1
			c-6.36,3.76-14.12,3.46-21.26,3.62c-10.88-0.51-21.96,0.97-32.66-1.64c-3.87-1.05-8.18-2.8-9.94-6.69
			c-0.78-2.1-1.23-4.95,0.55-6.67c2.74-2.18,7.09-2.67,8.43-6.33c2.95-7.16,3.09-15.05,3.62-22.66c0.38-11.7,0.53-23.43-0.19-35.12
			c-0.48-5.03-0.97-10.18-2.8-14.93c-1.73-4.21-6.15-6.01-9.54-8.6c-3.51-2.64-3.51-8.33-0.5-11.36
			C-1453.029,99.625-1447.989,97.685-1443.159,95.975z"/>
		<g>
			<path fill="#0066B3" d="M-1373.209,94.025c8.73-3.09,19.27,2.72,21.02,11.89c2.28,8.92-4.22,18.85-13.45,19.92
				c-8.85,1.63-18.03-5.23-18.82-14.21C-1385.529,104.055-1380.619,96.135-1373.209,94.025z M-1373.189,97.085
				c-7.04,2.54-10.66,11.58-7.24,18.26c2.81,6.41,11.03,9.65,17.44,6.76c6.65-2.57,10.26-10.94,7.33-17.49
				C-1358.089,97.815-1366.589,94.225-1373.189,97.085z"/>
		</g>
		<path fill="#0066B3" d="M-2652.269,95.485c54.06,8.53,108.1,17.21,162.15,25.79c0,48.93,0.02,97.87-0.01,146.8
			C-2544.229,210.595-2598.249,153.045-2652.269,95.485z"/>
		<g>
			<path fill="#0066B3" d="M-1375.369,100.975c3.95,0.28,8.4-0.8,12,1.28c3.26,2.64,1.3,7.88-2.55,8.7c2.18,2.32,3.86,5.04,5.5,7.76
				c-0.89,0.03-2.68,0.08-3.57,0.1c-2.04-3.31-3.71-8.07-8.39-7.85c-0.09,2.59-0.11,5.19-0.1,7.79c-0.72,0-2.17,0-2.9-0.01
				C-1375.379,112.825-1375.389,106.905-1375.369,100.975z M-1372.479,103.415c0,1.79,0.01,3.58,0.05,5.38
				c2.58-0.22,7.67,0.76,7.59-3.22C-1366.179,102.665-1369.959,103.775-1372.479,103.415z"/>
		</g>
		<path fill="#0066B3" d="M-1936.849,107.385c3.91-2.62,8.8-2.14,13.27-1.98c1.42,0.02,3.41,0.36,3.63,2.11
			c0.97,5.96-0.46,12.03,0.44,17.99c0.15,1.42,1.59,2.05,2.88,2.08c7.28,0.46,14.61-0.2,21.89,0.29c1.51-0.02,2.91,1.02,2.88,2.64
			c0.26,3.97,0.29,7.98-0.09,11.94c-0.15,1.89-1.56,3.67-3.53,3.82c-7.32,0.67-14.71-0.31-22.02,0.54c-1.92-0.06-2.15,2.18-2.1,3.63
			c-0.05,9,0.02,18.01-0.03,27.01c-0.05,4.14,0.46,8.61,3.16,11.94c2.51,3.2,7.05,4.36,10.89,3.21c2.41-0.78,4.49-2.34,6.9-3.13
			c4.92-1.09,9.83,4.03,8.77,8.91c-1.08,5.33-5.62,9.03-9.92,11.9c-10.64,6.52-23.4,9.92-35.87,8.74
			c-10.04-1.03-20.41-5.92-25.24-15.19c-4.96-8.98-3.43-19.55-3.67-29.37c-0.17-9.25,0.34-18.54-0.24-27.77
			c-5.2-1.13-10.92,0.92-16.03-0.94c-1.24-3.73-0.22-7.98-0.89-11.89c1.57-0.52,3.18-1.03,4.6-1.91
			C-1963.749,123.725-1950.299,115.545-1936.849,107.385z"/>
		<path fill="#0066B3" d="M-1846.089,125.225c5.15-0.46,10.68-2.07,15.64,0.07c4.08,2.88,2.57,8.68,4.8,12.43
			c3.49,0.3,5.39-3.47,7.64-5.56c7.58-9.21,22.67-10.65,32.02-3.4c6.53,5.28,8.94,14.77,6.49,22.68
			c-4.19,12.13-19.2,18.89-31.07,14.01c-4.39-1.56-7.46-5.22-11.25-7.71c-2.33-1.4-4.75,0.88-5.47,3.01
			c-3.12,8.31-0.85,17.22,0.04,25.71c0.48,2.82-0.49,6.5,2.13,8.5c3.24,2.23,7.55,1.96,10.82,4.15c3.16,2.19,3.34,6.69,2.29,10.06
			c-1.35,3.86-5.43,5.68-9.12,6.57c-7.38,1.66-15,1.52-22.51,1.63c-9.97-0.16-20.07,0.79-29.9-1.31c-3.35-0.75-6.78-1.92-9.27-4.37
			c-3.05-2.96-3.39-8.58-0.09-11.49c3.25-3.08,8.63-4.43,9.75-9.31c1.89-7.64,1.37-15.62,1.55-23.42c-0.15-4.8,0.54-9.91-1.53-14.39
			c-1.26-2.9-4.55-3.62-7.06-4.98c-3.12-1.32-3.52-5.38-2.8-8.26c1.39-3.96,5.43-6.05,8.99-7.74
			C-1865.149,128.295-1855.569,126.585-1846.089,125.225z"/>
		<g>
			<path fill="#0066B3" d="M-1732.049,125.315c13.13-2.29,27.28-1.02,39.07,5.54c7.4,4.05,13.03,11.46,14,19.95
				c0.9,11.18-0.68,22.51,1.14,33.63c0.64,3.13,1.65,7.34,5.31,8.07c1.82,0.69,4.8,0.42,5.23,2.92c1.32,6.34-3.15,11.97-7.75,15.73
				c-8.53,6.96-20.88,10.74-31.38,6.15c-4.36-1.61-6.39-7.01-11.1-7.69c-4.83,1.72-8.52,5.78-13.48,7.34
				c-10.87,3.83-23.49,3.05-33.79-2.12c-11.89-5.87-16.8-22.75-9.22-33.79c6.5-9.76,18.06-14.68,29.23-16.73
				c6.67-1.24,13.49-1.48,20.26-1.16c2.14,0.4,3.05-1.89,2.98-3.63c0.17-5.27,0.38-10.99-2.31-15.72
				c-2.46-4.36-8.82-5.07-12.62-2.11c-4.73,3.62-7.09,9.41-11.62,13.24c-4.4,3.94-10.95,5.39-16.58,3.57
				c-3.84-1.26-7.24-4.76-7.11-9c-0.02-5.79,4.45-10.31,8.97-13.31C-1753.619,130.165-1742.799,127.145-1732.049,125.315z
				 M-1729.099,177.255c-7.29,2.07-9.73,11.68-6.1,17.8c3.1,4.52,11.5,3.52,12.96-1.98c0.99-4.43,1.14-9.08,0.92-13.6
				C-1722.019,175.915-1726.499,176.495-1729.099,177.255z"/>
		</g>
		<path fill="#0066B3" d="M-1659.159,125.185c12.99-1.15,26.14-1.51,39.12-0.02c4.58,0.75,9.52,1.49,13.27,4.47
			c2.78,2.07,2.85,6.66,0.05,8.74c-2.48,2.25-6.68,4.44-5.5,8.48c1.79,5.6,4.86,10.99,9.17,15.04c2.48,2.47,6.06,0.16,7.99-1.88
			c4.1-4.57,6.91-10.47,7.68-16.57c-0.93-3.88-5.32-6.01-5.77-10.13c-0.78-3.36,1.82-6.4,4.9-7.35c7.59-2.69,15.81-1.7,23.71-1.75
			c5.15,0.19,10.73,0.14,15.27,2.94c3.2,1.8,3.83,7.2,0.54,9.22c-3.39,2.07-7.47,2.86-10.58,5.4c-3.14,2.36-4.77,6.02-6.62,9.36
			c-6.61,12.03-13.27,24.02-19.88,36.04c-4.84,8.42-8.88,17.38-15.12,24.91c-2.71,3.28-6,6.93-10.56,7.17
			c-4.52,0.57-8.61-2.21-11.22-5.66c-4.44-5.78-7.85-12.24-11.58-18.48c-8.13-13.88-16.28-27.75-24.39-41.64
			c-1.81-3.09-3.5-6.42-6.48-8.54c-2.91-2.22-6.69-3-9.46-5.41c-2.56-2.77-2.85-8.21,0.67-10.35
			C-1669.539,126.425-1664.209,125.855-1659.159,125.185z"/>
		<g>
			<path fill="#0066B3" d="M-1541.609,137.395c12.56-9.91,29.09-14.32,44.96-12.9c11.03,0.88,22.05,5.15,29.91,13.12
				c6.24,6.33,10.81,14.84,10.85,23.89c-0.07,3.86-0.67,8.25-3.74,10.95c-2.46,2.14-5.89,2.33-8.99,2.32c-13-0.06-26,0.02-39-0.05
				c-2.17-0.03-4.31,0.17-6.43,0.52c-0.45,9.03,7.65,15.75,15.68,17.93c9.55,2.61,19.17-1.46,27.46-5.94
				c3.57-2.35,8.26-0.22,10.15,3.27c1.99,3.32,0.72,7.5-1.28,10.49c-3.77,5.35-9.49,8.92-15.29,11.71c-9.73,4.5-20.5,7.2-31.27,6.48
				c-13.18-0.62-26.54-5.27-36.05-14.65c-10.97-10.5-16.11-26.65-13.29-41.56C-1555.949,152.775-1549.699,143.765-1541.609,137.395z
				 M-1508.349,140.795c-5.25,2.25-9.35,8.71-6.86,14.34c1.46,2.77,5.06,2.12,7.67,2.17c4.09-0.35,8.53,0.39,12.36-1.43
				c3.19-1.83,2.57-6.23,1.42-9.13C-1495.869,141.175-1502.949,138.305-1508.349,140.795z"/>
		</g>
		<path fill="#0066B3" d="M-2104.049,128.275c3.25-0.37,6.99-1.29,9.88,0.81c2.39,1.62,2.72,4.74,2.72,7.39
			c-0.02,15.99-0.01,31.99-0.02,47.98c0.06,4.19,0.3,8.66,2.54,12.35c1.53,2.47,4.6,3.47,6.15,5.92c1.06,2.71,0.83,6.14-1.19,8.36
			c-2.42,2.67-6,3.85-9.4,4.7c-8.94,2.04-18.17,1.56-27.27,1.55c-6.57-0.24-13.24-0.55-19.58-2.43c-2.66-0.85-5.53-2.2-6.76-4.87
			c-1.1-2.74-1.07-6.5,1.69-8.24c3.37-2.69,8.91-4.21,9.4-9.19c1.17-9.63,1.11-19.39,0.4-29.06c-0.38-3.64-0.62-8.04-3.96-10.32
			c-2.9-2.27-7.77-3.36-8.13-7.71c-0.5-4.16,3.74-6.52,6.88-8.14C-2129.159,132.155-2116.479,130.195-2104.049,128.275z"/>
		<g>
			<path fill="#0066B3" d="M-2035.119,128.235c11.9-1.41,24.47,0,35.11,5.78c9.41,5.1,16.96,14.1,19.16,24.7
				c0.75,4.57,0.81,9.69-1.67,13.77c-1.68,2.74-5.02,3.84-8.08,3.86c-14.32,0.1-28.65-0.06-42.97,0.06
				c-1.56,0.2-3.66-0.12-4.63,1.43c-0.22,4.99,3.43,9.18,7.28,11.91c6.1,4.4,14,6.19,21.38,4.54c5.52-0.95,10.37-3.84,15.37-6.17
				c4.7-2.41,10.35,2.4,10.06,7.3c-0.26,4.72-3.57,8.51-7.02,11.41c-8.48,6.72-19.06,10.41-29.66,12.04
				c-14.94,1.67-30.98-1.77-42.66-11.58c-10.17-8.43-16.14-21.55-15.96-34.74c-0.1-10.01,3.82-19.92,10.54-27.3
				C-2060.269,135.585-2047.829,129.865-2035.119,128.235z M-2031.279,143.855c-4.84,2.27-8.54,8.27-6.3,13.53
				c1.24,2.66,4.58,2.16,6.99,2.21c4.16-0.32,8.68,0.45,12.54-1.5c2.83-1.82,2.24-5.77,1.26-8.47
				C-2018.699,143.925-2025.989,141.195-2031.279,143.855z"/>
		</g>
		<path fill="#0066B3" d="M-2482.239,268.545c-0.03-43.15-0.02-86.3-0.01-129.45c26.64,0.02,53.28-0.02,79.91,0.02
			C-2428.939,182.275-2455.579,225.415-2482.239,268.545z"/>
	</g>
	<g>
		<path d="M-2154.649,233.435c2.05-3.4,9.68-3.08,9.69,1.61c-1.35,2.51-4.35,3.76-6.18,5.96c0.25-2.39,1.82-4.3,2.44-6.55
			c0.4-1.98-1.89-2.21-3.24-2.25c0.37,0.61,1.12,1.82,1.49,2.43C-2151.769,236.415-2155.199,236.235-2154.649,233.435z"/>
		<path d="M-2239.229,239.555c-0.41-1.95,1.93-3.42,3.54-2.22c2.45,1.95,4.31,4.54,6.25,6.97
			C-2233.139,244.005-2236.469,241.905-2239.229,239.555z"/>
		<path d="M-2159.759,238.085c1.36-0.66,3.02-0.18,4.5-0.29c1.55,2.27,3.17,4.49,4.81,6.71c-0.72-0.02-2.14-0.05-2.85-0.06
			c-1.4-1.17-2.79-2.34-4.19-3.49c-2.1,1.64-4.03,4.04-7,3.69C-2162.969,242.425-2161.529,240.125-2159.759,238.085z"/>
		<path d="M-2046.899,244.205c1.93-2.52,3.83-5.17,6.41-7.08c1.83-1.2,5.08,1.51,2.65,3.07
			C-2040.569,242.045-2043.499,244.015-2046.899,244.205z"/>
		<path d="M-1635.769,238.165c1.39-0.57,3.01-0.2,4.51-0.31c1.58,2.23,3.2,4.44,4.83,6.65c-0.72-0.02-2.15-0.05-2.86-0.07
			c-1.4-1.16-2.78-2.3-4.17-3.44c-2.1,1.63-4.05,3.98-6.99,3.65C-1638.949,242.445-1637.519,240.175-1635.769,238.165z"/>
		<path d="M-1438.139,237.895c1.44-0.02,2.9-0.03,4.38-0.04c1.66,2.25,3.33,4.49,4.95,6.79c-3.01,0.36-5.03-1.96-7.13-3.64
			c-2.08,1.68-4.04,3.94-6.99,3.66C-1441.389,242.375-1439.759,240.135-1438.139,237.895z"/>
		<path d="M-2033.929,241.255c1.62-3.02,6.78-2.08,7.04,1.38c-0.11,3.28-3.52,4.9-6.11,6.11c-0.07,5.47,0.09,10.96-0.05,16.44
			c-0.05,3.56-2.29,7.06-5.76,8.16c-4.11,1.28-8.68,1.12-12.75-0.24c-2.77-0.93-4.91-3.54-5.01-6.5
			c-0.39-5.89,0.03-11.81-0.22-17.71c-1.32-0.1-2.63-0.2-3.94-0.27c0-0.66,0-1.31,0.01-1.95c5.04,0.01,10.07,0,15.11,0.01
			c0,0.46,0,1.4,0,1.87c-1.29,0.24-2.85-0.12-3.85,0.91c-0.3,5.35-0.16,10.72-0.1,16.07c-0.32,7.45,12.55,7.72,13.71,0.88
			c0.26-4.96,0.18-9.95,0.06-14.91c0.17-2.93-4.34-1.96-4.48-4.75c2.71-0.1,5.44-0.08,8.16-0.06
			C-2033.439,245.255-2035.299,243.285-2033.929,241.255z"/>
		<path d="M-2002.949,247.925c1.23-0.88,2.52-1.7,3.87-2.4c0.26,3.9,0.43,7.81,0.34,11.72c-0.48-0.08-1.43-0.24-1.91-0.32
			c-0.96-2.62-2.02-5.37-4.24-7.18c-3.18-2.75-9.01-2.19-10.77,1.92c-2.05,4.84-1.88,10.49-0.45,15.48
			c1.38,4.48,7.23,5.9,11.04,3.63c2.72-1.41,3.92-4.37,4.89-7.09c0.59,0.16,1.76,0.48,2.34,0.65c-1.06,3.4-2.82,6.92-6.2,8.53
			c-5.37,2.28-12.24,1.75-16.63-2.32c-6.17-5.14-5.73-15.77,0.33-20.82C-2015.709,245.475-2008.389,244.975-2002.949,247.925z"/>
		<path d="M-2316.809,246.765c3.44-0.14,6.89-0.06,10.34-0.12c5.14,5.66,10.2,11.39,15.37,17.03c-0.14-4.24,0.3-8.53-0.27-12.74
			c-0.34-2.04-2.68-2.04-4.23-2.49c0-0.44-0.01-1.32-0.01-1.76c3.85,0.05,7.74-0.24,11.58,0.3c5.33-0.57,10.7-0.25,16.05-0.25
			c-0.05,0.46-0.15,1.37-0.2,1.82c-1.31,0.14-2.61,0.3-3.91,0.48c-0.03,3.15-0.02,6.3-0.02,9.45c3.46,0,6.93,0,10.39,0
			c0.01-3.22,0.06-6.44-0.16-9.64c-1.29-0.08-2.58-0.14-3.86-0.19c0.01-0.68,0.03-1.35,0.07-2.01c5.01,0.07,10.03,0.02,15.06,0.03
			c0,0.47,0,1.4,0,1.87c-1.34,0.45-3.99-0.41-3.91,1.75c-0.14,7.01-0.23,14.04,0.11,21.05c1.37,0.09,2.74,0.18,4.12,0.28
			c-0.07,0.49-0.21,1.47-0.28,1.96c-5.05,0.01-10.1,0-15.14,0c-0.01-0.46-0.01-1.39-0.01-1.86c1.28-0.14,2.55-0.34,3.82-0.58
			c0.38-3.38,0.12-6.78,0.18-10.16c-3.47-0.01-6.93-0.01-10.39,0c-0.01,3.44-0.07,6.88,0.15,10.32c1.74,0.26,4.51-0.49,4.05,2.28
			c-5-0.06-9.99,0.14-14.98-0.07c-0.23-0.44-0.68-1.31-0.9-1.75c1.44-0.2,2.89-0.37,4.35-0.53c0.38-7.39,0.29-14.81,0.08-22.2
			c-0.83-0.1-2.48-0.29-3.3-0.39c-0.28-0.26-0.83-0.79-1.11-1.05c-1.77,1.34-4.89,2.05-4.66,4.85c-0.2,7.24,0,14.49-0.09,21.74
			c-2.8,0.29-4.22-2.25-5.86-4c-5.05-5.74-10.18-11.4-15.23-17.14c0.18,5.42-0.39,10.89,0.31,16.28c0.19,2.57,5.45,1.3,4.06,4.19
			c-3.79,0.19-7.58,0.03-11.37,0.07c0-0.47,0-1.41,0-1.88c1.5-0.41,3.9-0.31,4.14-2.37c0.39-6.32,0.01-12.66,0.18-18.98
			C-2313.879,249.255-2316.449,249.035-2316.809,246.765z"/>
		<g>
			<path d="M-2235.389,246.005c0.74-0.01,2.24-0.02,2.99-0.03c3.71,8.35,7.41,16.7,11.07,25.07c0.65,0.21,1.96,0.64,2.61,0.86
				c-0.09,0.43-0.29,1.3-0.38,1.73c-4.25-0.19-8.52,0.2-12.75-0.22l-1.12-1.19c1.29-0.47,2.63-0.88,3.93-1.35
				c-0.76-1.82-1.53-3.63-2.31-5.43c-3.38,0.05-6.77,0.03-10.15,0.07c-0.39,1.5-1.28,3.05-0.78,4.65c1.13,1.5,4.09,0.96,4.06,3.4
				c-3.98,0.04-7.95,0.04-11.91-0.01c0.62-2.65,3.87-3.21,4.79-5.71C-2241.829,260.655-2238.739,253.265-2235.389,246.005z
				 M-2240.199,262.975c2.6,0.01,5.2,0.01,7.81,0.01c-1.28-3.03-2.52-6.08-3.8-9.11
				C-2237.509,256.915-2238.859,259.935-2240.199,262.975z"/>
		</g>
		<path d="M-2201.689,246.685c8.71-0.01,17.43,0,26.15-0.01c0.15,3.48,0.48,6.96,0.57,10.45c-2.62,0.17-2.25-2.71-3.16-4.25
			c-0.93-2.91-3.81-4.55-6.77-4.52c-0.41,7.63-0.21,15.28-0.12,22.92c1.47,0.17,2.94,0.34,4.41,0.51c0,0.45,0,1.35,0,1.8
			c-5.43-0.01-10.86,0.03-16.28-0.02c-0.12-2.66,2.75-1.97,4.5-2.42c0.33-7.57,0.19-15.15,0.08-22.72c-3-0.17-5.92,1.53-6.82,4.48
			c-0.92,1.51-0.67,4.27-3.15,4.23C-2202.199,253.635-2201.869,250.165-2201.689,246.685z"/>
		<g>
			<path d="M-2163.249,246.955c6.96-2.54,15.74,0.22,18.97,7.16c3.8,7.3-0.72,17.04-8.53,19.3c-7.1,2.46-16.04-0.66-18.86-7.93
				C-2175.049,258.325-2170.739,249.225-2163.249,246.955z M-2160.449,248.605c-2.63,1.16-3.71,4.14-4.1,6.79
				c-0.68,4.53-0.6,9.43,1.44,13.63c1.85,3.97,8.69,4.6,10.55,0.33c2.18-5.44,2.45-11.8,0.43-17.33
				C-2153.259,248.695-2157.309,247.085-2160.449,248.605z"/>
		</g>
		<path d="M-2125.049,264.335c-2.19-7.24,2.24-15.59,9.55-17.62c4.01-1.2,8.42-0.77,12.1,1.22c1.2-0.93,2.43-1.84,3.92-2.27
			c0.13,3.85,0.31,7.71,0.37,11.58c-0.47-0.1-1.4-0.29-1.86-0.39c-1.3-2.59-2.25-5.6-4.72-7.35c-3.26-2.58-8.96-1.75-10.56,2.36
			c-1.9,4.89-1.83,10.53-0.26,15.51c1.52,4.41,7.37,5.61,11.11,3.33c2.61-1.44,3.8-4.31,4.69-6.99c0.6,0.15,1.8,0.46,2.4,0.61
			c-1.2,4.07-3.72,8.27-8.17,9.25C-2113.799,275.905-2123.099,272.135-2125.049,264.335z"/>
		<path d="M-2095.459,246.685c4.98,0.05,9.96-0.13,14.94,0.06c0.11,0.46,0.34,1.36,0.45,1.82c-1.36,0.12-2.72,0.25-4.07,0.4
			c-0.21,3.16-0.18,6.34-0.17,9.51c3.53,0.01,7.06,0.01,10.59,0.01c0.01-3.21,0.07-6.43-0.19-9.62c-1.28-0.09-2.55-0.17-3.81-0.23
			c0-0.49-0.01-1.47-0.01-1.95c5,0,10-0.02,15,0.01c-0.03,0.48-0.08,1.43-0.11,1.91c-1.25,0.13-2.48,0.28-3.71,0.46
			c-0.38,7.4-0.49,14.86,0.08,22.26c1.34,0.13,2.68,0.28,4.04,0.44c-0.16,0.43-0.48,1.28-0.64,1.7c-4.88,0.31-9.77,0.03-14.64,0.13
			c-0.01-0.47-0.01-1.39-0.01-1.85c1.26-0.16,2.52-0.37,3.78-0.64c0.42-3.36,0.17-6.76,0.21-10.13c-3.52,0.01-7.05,0.01-10.57,0.01
			c0.06,3.33-0.27,6.7,0.25,10.01c1.18,0.44,2.44,0.65,3.77,0.65c-0.01,0.49-0.02,1.46-0.03,1.95c-5.02-0.01-10.04-0.01-15.06,0
			c-0.04-0.49-0.12-1.48-0.15-1.98c1.33-0.12,2.68-0.24,4.03-0.35c0.3-6.94,0.2-13.89,0.11-20.83c0.19-2.25-2.67-1.53-4.03-1.87
			C-2095.419,248.095-2095.439,247.155-2095.459,246.685z"/>
		<g>
			<path d="M-1981.609,246.685c6.03,0.02,12.07-0.04,18.11,0c4.5-0.09,9.03,2.43,11.12,6.45c3.56,6.98,0.92,17.62-7.33,19.75
				c-7.2,1.42-14.61,0.4-21.9,0.71c0-0.52,0-1.54-0.01-2.05c1.33-0.08,2.67-0.16,4.02-0.25c0.39-5.93,0.08-11.88,0.21-17.82
				c-0.12-1.54,0.25-3.21-0.46-4.63c-1.26-0.19-2.51-0.31-3.76-0.38C-1981.609,248.015-1981.609,247.125-1981.609,246.685z
				 M-1970.419,249.205c0.21,7.25-0.34,14.54,0.27,21.77c2.35,0.91,5.13,0.66,7.39-0.43c2.8-1.55,3.44-5.03,3.83-7.93
				c0.28-3.71,0.25-7.75-1.69-11.06C-1962.639,248.285-1967.119,248.025-1970.419,249.205z"/>
		</g>
		<path d="M-1948.609,246.685c5.04-0.01,10.08-0.01,15.13,0c-0.01,0.45-0.03,1.35-0.04,1.8c-1.26,0.35-2.99-0.14-3.87,1.03
			c-0.2,5.64-0.21,11.31,0,16.95c0.52,5.23,7.77,5.98,11.39,3.48c2.78-1.92,2.4-5.56,2.41-8.51c-0.13-3.61,0.26-7.25-0.28-10.82
			c-0.5-1.68-2.64-1.59-3.96-2.19c-0.06-0.43-0.19-1.27-0.26-1.69c3.83-0.09,7.66-0.06,11.49-0.05c-0.01,0.43-0.02,1.29-0.03,1.72
			c-1.67,0.49-3.95,0.87-4.14,3.03c-0.67,5.17,0.17,10.41-0.42,15.58c-0.84,4.81-5.9,7.37-10.44,7.16
			c-4.65,0.17-11.08-0.69-12.56-5.98c-1.02-6.19-0.02-12.53-0.53-18.78c-0.88-1.12-2.67-0.5-3.89-0.85
			C-1948.609,248.095-1948.609,247.155-1948.609,246.685z"/>
		<path d="M-1902.099,246.755c5.32-0.12,10.65-0.13,15.98,0c-0.07,0.48-0.2,1.44-0.27,1.92c-1.37,0.02-2.72,0.04-4.07,0.08
			c-0.59,7.46-0.51,15.02-0.05,22.49c4,0.71,9.13,0.74,11.59-3.11c1.35-1.72,1.08-5.13,3.99-4.9c-0.09,3.45-0.32,6.9-0.51,10.36
			c-8.38-0.07-16.77,0.1-25.14-0.07c-0.53-0.3-1.59-0.92-2.12-1.23c1.53-0.5,3.12-0.86,4.66-1.38c0.48-6.83,0.15-13.73,0.18-20.58
			c0.1-2.13-2.65-1.52-3.97-1.77C-1901.899,248.115-1902.029,247.205-1902.099,246.755z"/>
		<path d="M-1873.069,246.735c5.15-0.11,10.3-0.04,15.46-0.05c0,0.49,0,1.48,0,1.97c-1.27,0.04-2.53,0.08-3.78,0.15
			c-0.84,7.45-0.35,15.01-0.28,22.51c1.34,0.07,2.7,0.15,4.07,0.22c-0.01,0.52-0.01,1.54-0.01,2.06c-5.11-0.01-10.21-0.01-15.3,0
			c-0.01-0.51-0.02-1.52-0.02-2.02c1.33-0.1,2.66-0.19,4.01-0.29c0.18-6.92,0.11-13.85,0.08-20.76c0.19-2.21-2.63-1.75-4-1.97
			C-1872.899,248.095-1873.009,247.185-1873.069,246.735z"/>
		<path d="M-1853.979,264.815c-2.52-7.34,1.94-16.01,9.43-18.11c3.99-1.17,8.39-0.76,12.07,1.23c1.21-0.94,2.45-1.86,3.99-2.21
			c0.11,3.8,0.14,7.62,0.37,11.43l-1.85-0.2c-1.36-2.61-2.26-5.68-4.78-7.45c-3.26-2.55-8.89-1.78-10.53,2.29
			c-2.04,5.15-1.97,11.18,0.03,16.35c2.18,4.33,8.55,4.78,11.97,1.7c1.94-1.51,2.67-3.94,3.49-6.14c0.6,0.15,1.82,0.45,2.42,0.6
			c-1.1,3.28-2.67,6.8-5.97,8.39C-1840.739,276.445-1851.529,273.195-1853.979,264.815z"/>
		<path d="M-1824.459,246.685c5.11,0.01,10.22-0.07,15.33,0.06c-0.06,0.45-0.19,1.34-0.26,1.78c-1.26,0.07-2.48,0.27-3.66,0.6
			c-0.55,3.08-0.17,6.24-0.25,9.36c3.49,0,6.98,0,10.48,0c-0.03-3.01,0.13-6.03-0.1-9.02c-0.94-1.13-2.65-0.6-3.88-0.92
			c-0.02-0.47-0.04-1.4-0.05-1.86c5.04,0,10.07-0.02,15.11,0.01c-0.02,0.48-0.07,1.43-0.09,1.91c-1.3,0.13-2.57,0.29-3.84,0.46
			c-0.18,7.37-0.31,14.78,0.08,22.15c1.24,0.42,5.41-0.14,3.56,2.3c-4.93,0.2-9.86,0.01-14.79,0.08c0-0.47,0-1.4,0-1.86
			c1.26-0.15,2.52-0.35,3.79-0.6c0.42-3.37,0.15-6.78,0.2-10.16c-3.49,0.01-6.98,0.01-10.46,0.01c-0.01,3.5-0.21,7.03,0.32,10.52
			c0.91-0.01,2.75-0.02,3.67-0.02c0,0.52-0.01,1.58-0.01,2.11c-4.98-0.06-9.97,0.1-14.94-0.07c-1.57-2.62,2.19-1.97,3.61-2.29
			c0.47-7.36,0.14-14.75,0.19-22.12c-1.32-0.22-2.65-0.4-3.95-0.55C-1824.419,248.095-1824.439,247.155-1824.459,246.685z"/>
		<path d="M-1770.489,249.575c4.67-4.1,11.82-4.54,17.24-1.7c1.24-0.83,2.51-1.62,3.82-2.34c0.44,3.8,0.39,7.64,0.49,11.46
			c-0.48,0.03-1.44,0.08-1.92,0.1c-1.05-2.8-2.22-5.76-4.71-7.59c-3.27-2.62-8.9-1.7-10.53,2.37c-1.94,5.08-1.91,10.95-0.01,16.05
			c1.88,4.28,7.84,4.97,11.41,2.44c2.3-1.44,3.26-4.1,4.07-6.55c0.82,0.11,1.64,0.24,2.48,0.39c-1.05,3.19-2.43,6.69-5.62,8.31
			c-5.77,2.98-13.59,2.05-18.11-2.78C-1777.139,264.235-1776.359,254.345-1770.489,249.575z"/>
		<path d="M-1745.379,246.695c5.14-0.03,10.28-0.02,15.42,0c-0.01,0.49-0.05,1.45-0.06,1.94c-1.32,0.07-2.62,0.15-3.91,0.24
			c-0.21,3.2-0.21,6.4-0.19,9.61c3.5,0,7,0,10.5,0c-0.04-3,0.19-6.01-0.15-8.98c-0.62-1.36-2.68-0.52-3.84-0.93
			c0-0.48,0-1.42,0-1.89c4.99-0.01,9.99-0.01,15-0.01c0,0.47,0,1.39,0,1.85c-1.26,0.36-3.97-0.19-3.84,1.83
			c-0.11,6.97-0.12,13.95,0.05,20.93c1.24,0.11,2.49,0.22,3.76,0.33c0.01,0.49,0.03,1.48,0.05,1.97c-5.1,0-10.2,0.02-15.3-0.01
			c-0.18-2.58,2.38-2.04,4.12-2.34c0.22-3.42,0.16-6.84,0.16-10.25c-3.51-0.01-7.01-0.01-10.5,0c-0.02,3.45-0.08,6.91,0.22,10.36
			c1.03,0.06,3.1,0.19,4.13,0.25c-0.12,0.48-0.37,1.44-0.5,1.92c-5.08,0.2-10.17,0.01-15.25,0.07c-0.49-2.8,2.4-2,4.13-2.37
			c0.28-7.42,0.22-14.86,0.04-22.27c-1.33-0.13-2.64-0.23-3.95-0.32C-1745.309,248.145-1745.359,247.175-1745.379,246.695z"/>
		<path d="M-1710.599,246.675c5.03,0.01,10.07,0,15.12,0.01c-0.01,0.45-0.03,1.36-0.04,1.81c-1.28,0.32-2.94-0.12-3.81,1.09
			c-0.36,5.3-0.19,10.64-0.09,15.96c-0.25,7.38,12.5,7.74,13.71,0.91c0.5-4.98,0.43-10.05,0.09-15.04c0.02-2.91-4.33-1.9-4.53-4.68
			c8.5-0.06,17.01-0.15,25.51,0.03c0.14,0.41,0.43,1.25,0.58,1.66c-0.86,0.22-2.57,0.64-3.42,0.85c2,3.22,4.07,6.4,6.1,9.62
			c1.53-2.77,3.46-5.34,4.6-8.3c-0.27-1.76-2.54-1.68-3.81-2.17c-0.01-0.44-0.02-1.31-0.03-1.74c3.95-0.01,7.89-0.03,11.85,0.04
			c-0.06,0.43-0.17,1.29-0.22,1.72c-4.94,1.28-6.77,6.49-9.4,10.28c-2.83,3.59-1.49,8.35-1.59,12.56c1.42,0.16,2.84,0.32,4.28,0.49
			c-0.03,0.46-0.11,1.37-0.15,1.82c-5.26-0.01-10.51,0-15.75,0c-0.01-0.49-0.02-1.45-0.02-1.93c1.4-0.11,2.82-0.23,4.24-0.35
			c0.19-3.01,0.17-6.02,0.17-9.03c-3.05-4.35-5.59-9.09-9.01-13.16c-2.21-1-6.02-0.64-6.46,2.29c-0.7,5.27,0.27,10.65-0.5,15.92
			c-0.87,3.9-4.65,6.5-8.52,6.7c-4.09,0.32-8.72,0.27-12.12-2.31c-1.9-1.42-2.68-3.85-2.59-6.14c-0.15-5.37,0.21-10.75-0.13-16.11
			c-0.93-1.18-2.8-0.56-4.07-0.92C-1710.609,248.085-1710.609,247.145-1710.599,246.675z"/>
		<path d="M-1647.849,246.685c8.91-0.01,17.81,0,26.72,0c0.01,3.27,0.11,6.54,0.15,9.82c-0.49-0.01-1.47-0.04-1.95-0.06
			c-1.07-3.02-2.52-6.65-6.07-7.32c-2.37-0.4-5.4-1.2-7.39,0.49c-0.45,3.1-0.19,6.24-0.18,9.36c1.38-0.4,2.94-0.46,4.17-1.31
			c1.74-1.27,1.41-4.55,4.06-4.59c0.01,4.37,0.03,8.74,0.29,13.1l-1.94,0.24c-0.46-3.45-3.18-5.63-6.51-6.04
			c0.04,3.55-0.62,7.27,0.29,10.71c3.11,0.89,6.66,0.75,9.53-0.86c2.5-1.52,3.27-4.57,4.4-7.06c0.44,0.25,1.31,0.76,1.75,1.01
			c-0.04,3.14-0.36,6.27-0.44,9.41c-8.94,0.01-17.88,0-26.81,0c-0.03-0.42-0.09-1.26-0.12-1.68c1.5-0.51,4.58,0.07,4.14-2.4
			c0.13-6.75-0.03-13.51,0.06-20.26c-1.36-0.29-2.76-0.54-4.1-0.75C-1647.809,248.035-1647.839,247.135-1647.849,246.685z"/>
		<path d="M-1616.049,246.735c3.42-0.09,6.86-0.04,10.3-0.07c5.19,5.66,10.27,11.42,15.42,17.11c-0.1-4.12,0.28-8.27-0.21-12.37
			c-0.1-2.28-2.57-2.55-4.25-3c-0.01-0.43-0.05-1.29-0.06-1.72c3.88,0.01,7.77-0.05,11.67,0.04c-0.23,2.06-2.42,2.31-3.83,3.28
			c-0.82,1.32-0.77,2.94-0.81,4.44c0,6.51,0.02,13.03,0.01,19.54c-0.6,0.01-1.79,0.01-2.39,0.01c-6.26-6.96-12.45-13.97-18.7-20.94
			c0.1,5.15-0.23,10.32,0.15,15.47c0,2.33,2.46,2.81,4.24,3.25c0,0.45,0.01,1.36,0.01,1.82c-3.89-0.01-7.78,0.01-11.66-0.02
			c-0.4-3.06,4.03-1.47,4.35-4.06c0.49-6.37,0.03-12.78,0.23-19.16C-1613.179,249.275-1615.629,248.905-1616.049,246.735z"/>
		<path d="M-1569.329,246.715c3.42-0.05,6.85-0.07,10.29,0.03c4.97,5.75,10.16,11.31,15.2,17.01c-0.13-4.3,0.4-8.65-0.31-12.9
			c-0.4-1.94-2.65-1.97-4.15-2.39c-0.02-0.44-0.05-1.33-0.06-1.78c3.81-0.01,7.64-0.02,11.46,0.03c-0.04,0.43-0.14,1.31-0.19,1.74
			c-1.62,0.59-3.91,1-3.98,3.15c-0.57,7.5-0.05,15.06-0.26,22.58c-1.28-0.21-2.73-0.23-3.5-1.45c-5.88-6.54-11.68-13.16-17.57-19.68
			c0.18,5.34-0.41,10.75,0.31,16.05c0.03,2.86,5.47,1.37,4.07,4.42c-3.66,0.11-7.32,0.18-10.96-0.04c-2.58-2.61,3.84-1.39,3.71-4.04
			c0.42-6.37,0-12.78,0.2-19.16c-1.33-0.72-2.69-1.38-4.06-1.94C-1569.179,247.945-1569.279,247.125-1569.329,246.715z"/>
		<path d="M-1530.469,249.675c4.93-4.2,12.27-4.54,17.98-1.79c1.25-0.81,2.57-1.51,4.02-1.93c0.13,3.69,0.3,7.4,0.37,11.1
			l-1.81-0.16c-1.5-2.49-2.18-5.63-4.7-7.35c-3.31-2.5-9.11-2.09-11,1.95c-2.41,5.17-2.4,11.37-0.64,16.73
			c1.28,4.31,7.69,5.36,10.49,1.99c1.5-1.95,1.01-4.58,1.11-6.85c-1.37-0.1-2.73-0.18-4.07-0.24c0-0.49,0-1.46,0-1.94
			c4.73-0.01,9.47-0.01,14.22,0c0,0.49,0,1.48,0,1.97c-0.86,0.04-2.57,0.1-3.43,0.13c-0.26,3.63-0.2,7.27-0.18,10.91
			c-0.51,0-1.52,0-2.03,0c-0.64-1.2-1.25-2.38-1.85-3.56c-6.12,5.77-17.54,4.45-21.65-3.05
			C-1536.669,261.865-1535.759,253.775-1530.469,249.675z"/>
		<path d="M-1503.149,246.705c5.15-0.04,10.31-0.04,15.48,0c-0.07,0.48-0.19,1.44-0.26,1.92c-0.85,0.07-2.56,0.2-3.41,0.27
			c-1,3.04-0.27,6.41-0.46,9.59c3.49,0,6.98,0,10.48,0c-0.01-2.7,0.07-5.39-0.03-8.08c0.34-2.3-2.68-1.46-3.91-1.86
			c-0.04-0.46-0.11-1.38-0.15-1.84c5.01-0.05,10.02-0.02,15.03-0.03c-0.01,0.46-0.03,1.37-0.04,1.83c-1.38,0.43-4.09-0.19-3.81,2.04
			c-0.07,6.91-0.32,13.84,0.19,20.74c1.25,0.38,4.89-0.3,3.51,2.23c-4.8,0.15-9.6,0.14-14.39,0c-0.19-0.44-0.56-1.32-0.74-1.76
			c1.38-0.18,2.78-0.34,4.2-0.48c0.2-3.43,0.14-6.86,0.14-10.29c-3.5-0.01-7-0.01-10.48,0c-0.02,3.45-0.1,6.9,0.17,10.35
			c1.28,0.08,2.58,0.16,3.9,0.24c-0.03,0.51-0.08,1.52-0.1,2.02c-5.17-0.02-10.33,0.01-15.49-0.01c-0.43-2.76,2.44-2.02,4.22-2.39
			c0.17-7.46,0.56-14.99-0.2-22.42c-1.28-0.05-2.54-0.08-3.79-0.1C-1503.099,248.185-1503.139,247.195-1503.149,246.705z"/>
		<path d="M-1467.839,246.685c5.18-0.01,10.37,0,15.56-0.01c-0.01,0.48-0.02,1.42-0.03,1.9c-1.36,0.3-3.14-0.35-4.09,0.91
			c-0.2,7.25-0.17,14.52,0.02,21.78c1.35,0.11,2.71,0.21,4.09,0.31c0,0.5-0.01,1.51-0.02,2.02c-5.17-0.01-10.34-0.01-15.5,0
			c-0.01-0.51-0.02-1.53-0.02-2.04c1.34-0.08,2.7-0.16,4.08-0.24c0.17-7.49,0.35-15-0.1-22.47c-1.33-0.08-2.66-0.15-3.96-0.2
			C-1467.819,248.155-1467.829,247.175-1467.839,246.685z"/>
		<path d="M-1450.409,246.705c8.92-0.07,17.84,0.01,26.77-0.04c0.09,3.36,0.16,6.73,0.23,10.1c-3.39-0.15-2.81-4.7-5.26-6.28
			c-2.86-1.91-7.11-2.66-10.17-0.96c-0.51,3.12-0.25,6.3-0.23,9.45c1.49-0.44,3.27-0.42,4.52-1.52c1.24-1.48,1.39-4.05,3.65-4.41
			c0.2,4.42,0.36,8.85,0.27,13.29c-0.48-0.02-1.44-0.06-1.92-0.08c-0.38-3.45-3.23-5.45-6.46-5.9c-0.15,3.62-0.26,7.27,0.16,10.9
			c3.88,0.54,8.73,0.82,11.44-2.62c1.65-1.73,1.44-5.27,4.37-5.46c0.06,3.47-0.23,6.94-0.41,10.42c-8.89,0.01-17.78-0.04-26.66,0.02
			c-0.13-0.43-0.37-1.29-0.5-1.72c1.4-0.21,2.82-0.41,4.25-0.61c0.33-7.38,0.03-14.77,0.17-22.15c-1.37-0.23-2.73-0.43-4.07-0.59
			C-1450.299,248.085-1450.369,247.165-1450.409,246.705z"/>
		<g>
			<path d="M-1418.199,246.715c6.52-0.03,13.05-0.1,19.58,0.01c3.2,0.03,6.72,1.43,8.18,4.47c1.16,2.85,0.71,6.63-1.94,8.52
				c-4.19,3.06-9.66,2.41-14.52,2.35c-0.03,3.06-0.05,6.12,0.12,9.18c1.42,0.19,2.85,0.37,4.3,0.55c-0.01,0.45-0.03,1.35-0.04,1.79
				c-5.12,0.01-10.25-0.02-15.36,0.04c-0.13-0.42-0.39-1.26-0.52-1.68c1.47-0.23,2.96-0.45,4.46-0.7c0.08-7.35-0.05-14.7,0.07-22.05
				c-1.39-0.27-2.82-0.51-4.18-0.69C-1418.089,248.055-1418.159,247.165-1418.199,246.715z M-1406.639,249.465
				c-0.56,3.49-0.18,7.06-0.25,10.59c2.84-0.31,6.66,0.54,8.61-2.13c1.22-2.47,1.48-6.14-0.62-8.19
				C-1401.159,248.475-1404.409,248.025-1406.639,249.465z"/>
		</g>
		<path d="M-1866.219,276.075c3.41-1.18,5.21,4.48,1.53,5.17C-1868.159,282.475-1869.809,276.785-1866.219,276.075z"/>
		<path d="M-1436.349,276.375c3.56-0.73,4.45,5.19,0.78,5.3C-1439.199,282.565-1440.049,276.515-1436.349,276.375z"/>
	</g>
</g>
<g>
	<g>
		<path fill="#ED1A3B" d="M-1165.021,22.164c23.79-10.14,50.84-11.97,75.87-5.66c39.19,9.61,72.5,38.94,88.21,75.95
			c-78.12,0.02-156.23,0.02-234.35,0C-1221.911,61.264-1196.371,35.324-1165.021,22.164z"/>
		<path fill="#ED1A3B" d="M-1239.471,102.584c80.21,0.02,160.41,0,240.62,0.02c4.63,13.9,6.76,28.58,6.4,43.22
			c-16.61,0.06-33.21,0.03-49.82,0.02c2.22-2.92,4.46-5.83,6.69-8.74c-31.29-0.02-62.57,0-93.86-0.01c0-5.71,0-11.42,0.01-17.13
			c-35.16-5.51-70.33-10.98-105.49-16.46C-1236.451,103.244-1237.961,102.924-1239.471,102.584z"/>
		<path fill="#ED1A3B" d="M-1048.451,156.384c18.66-0.18,37.31,0.11,55.97-0.15c0.24,11.13-2.36,22.15-6.36,32.48
			c-22.99,0.04-45.98,0.02-68.97,0.01C-1061.401,177.914-1054.821,167.214-1048.451,156.384z"/>
		<path fill="#ED1A3B" d="M-1071.951,197.094c22.96,0,45.92-0.01,68.88,0.01c-4.71,11.72-11.54,22.46-19.36,32.34
			c-23.71,0.03-47.41,0.02-71.12,0.01C-1086.371,218.654-1079.191,207.854-1071.951,197.094z"/>
		<path fill="#ED1A3B" d="M-1097.801,237.964c22.28-0.02,44.56-0.03,66.84,0c-23.75,24.19-57.62,37.91-91.52,37.01
			C-1114.301,262.604-1105.991,250.324-1097.801,237.964z"/>
	</g>
	<path fill="#0066B3" d="M-940.491,94.864c8.09-0.94,16.26-0.81,24.4-0.74c8.02,0.2,16.1,0.59,23.94,2.42
		c3.08,0.78,6.29,1.76,8.67,3.98c2.73,2.56,2.59,7.47-0.37,9.81c-2.34,2.39-6.06,3.52-7.44,6.74c1.41,7.13,5.57,13.34,8.4,19.96
		c3.04,5.89,4.7,12.67,9.18,17.71c1.74,2.37,4.92,0.86,6.69-0.69c3.17-2.91,4.55-7.17,7.26-10.45c2.19-2.56,3.06-5.87,4.43-8.86
		c2.16-5.2,4.73-10.27,6.23-15.7c0.79-2.43-0.05-5.25-2.16-6.7c-2.59-2.18-6.74-3.42-7.16-7.29c-0.78-3.43,2.02-6.23,4.95-7.41
		c6.73-2.84,14.18-3.19,21.39-3.51c8.79-0.06,17.69-0.34,26.38,1.33c3.14,0.74,6.78,1.66,8.57,4.63c1.79,3.59,0.85,9.1-3.26,10.62
		c-4.65,1.5-10.11,0.73-14.24,3.71c-4.15,3.78-5.19,9.59-7.77,14.35c-14.26,26.05-28.55,52.08-42.8,78.13
		c-2.77,5.03-4.98,10.73-9.69,14.33c-4.74,3.58-11.28,3.26-16.67,1.52c-5.27-1.75-8.59-6.58-10.94-11.33
		c-13.6-27.72-27.01-55.54-40.68-83.23c-2.67-5.62-6.65-11.56-13.37-12.43c-6.9-0.24-8.56-10.07-3.93-14.13
		C-955.041,96.814-947.421,95.834-940.491,94.864z"/>
	<path fill="#0066B3" d="M-769.511,96.824c7.42-1.07,15.33-1.56,22.44,1.29c3.69,1.42,6.84,4.8,6.89,8.93
		c0.4,4.74-3.04,8.71-6.89,10.98c-7.23,4.28-15.68,5.91-23.93,6.85c-6.33,0.63-13.41,0.8-18.82-3.07
		c-5.21-3.74-6.76-12.63-1.46-16.95C-785.221,99.754-777.121,98.134-769.511,96.824z"/>
	<path fill="#0066B3" d="M-90.621,102.584c11.49-3.71,23.52-5.49,35.53-6.52c3.06-0.25,7.34-0.04,8.54,3.44
		c1.08,4.14,0.41,8.48,0.23,12.7c-2.36,30.16-1.41,60.44-1.61,90.66c2.36,2.54,5.58,3.85,8.55,5.51c4.5,2.44,3.89,9.69-0.35,12.1
		c-6.36,3.76-14.12,3.46-21.26,3.62c-10.88-0.51-21.96,0.97-32.66-1.64c-3.87-1.05-8.18-2.8-9.94-6.69
		c-0.78-2.1-1.23-4.95,0.55-6.67c2.74-2.18,7.09-2.67,8.43-6.33c2.95-7.16,3.09-15.05,3.62-22.66c0.38-11.7,0.53-23.43-0.19-35.12
		c-0.48-5.03-0.97-10.18-2.8-14.93c-1.73-4.21-6.15-6.01-9.54-8.6c-3.51-2.64-3.51-8.33-0.5-11.36
		C-100.491,106.234-95.451,104.294-90.621,102.584z"/>
	<path fill="#0066B3" d="M-1299.731,102.094c54.06,8.53,108.1,17.21,162.15,25.79c0,48.93,0.02,97.87-0.01,146.8
		C-1191.691,217.204-1245.711,159.654-1299.731,102.094z"/>
	<path fill="#0066B3" d="M-584.311,113.994c3.91-2.62,8.8-2.14,13.27-1.98c1.42,0.02,3.41,0.36,3.63,2.11
		c0.97,5.96-0.46,12.03,0.44,17.99c0.15,1.42,1.59,2.05,2.88,2.08c7.28,0.46,14.61-0.2,21.89,0.29c1.51-0.02,2.91,1.02,2.88,2.64
		c0.26,3.97,0.29,7.98-0.09,11.94c-0.15,1.89-1.56,3.67-3.53,3.82c-7.32,0.67-14.71-0.31-22.02,0.54c-1.92-0.06-2.15,2.18-2.1,3.63
		c-0.05,9,0.02,18.01-0.03,27.01c-0.05,4.14,0.46,8.61,3.16,11.94c2.51,3.2,7.05,4.36,10.89,3.21c2.41-0.78,4.49-2.34,6.9-3.13
		c4.92-1.09,9.83,4.03,8.77,8.91c-1.08,5.33-5.62,9.03-9.92,11.9c-10.64,6.52-23.4,9.92-35.87,8.74
		c-10.04-1.03-20.41-5.92-25.24-15.19c-4.96-8.98-3.43-19.55-3.67-29.37c-0.17-9.25,0.34-18.54-0.24-27.77
		c-5.2-1.13-10.92,0.92-16.03-0.94c-1.24-3.73-0.22-7.98-0.89-11.89c1.57-0.52,3.18-1.03,4.6-1.91
		C-611.211,130.334-597.761,122.154-584.311,113.994z"/>
	<path fill="#0066B3" d="M-493.551,131.834c5.15-0.46,10.68-2.07,15.64,0.07c4.08,2.88,2.57,8.68,4.8,12.43
		c3.49,0.3,5.39-3.47,7.64-5.56c7.58-9.21,22.67-10.65,32.02-3.4c6.53,5.28,8.94,14.77,6.49,22.68
		c-4.19,12.13-19.2,18.89-31.07,14.01c-4.39-1.56-7.46-5.22-11.25-7.71c-2.33-1.4-4.75,0.88-5.47,3.01
		c-3.12,8.31-0.85,17.22,0.04,25.71c0.48,2.82-0.49,6.5,2.13,8.5c3.24,2.23,7.55,1.96,10.82,4.15c3.16,2.19,3.34,6.69,2.29,10.06
		c-1.35,3.86-5.43,5.68-9.12,6.57c-7.38,1.66-15,1.52-22.51,1.63c-9.97-0.16-20.07,0.79-29.9-1.31c-3.35-0.75-6.78-1.92-9.27-4.37
		c-3.05-2.96-3.39-8.58-0.09-11.49c3.25-3.08,8.63-4.43,9.75-9.31c1.89-7.64,1.37-15.62,1.55-23.42c-0.15-4.8,0.54-9.91-1.53-14.39
		c-1.26-2.9-4.55-3.62-7.06-4.98c-3.12-1.32-3.52-5.38-2.8-8.26c1.39-3.96,5.43-6.05,8.99-7.74
		C-512.611,134.904-503.031,133.194-493.551,131.834z"/>
	<g>
		<path fill="#0066B3" d="M-379.511,131.924c13.13-2.29,27.28-1.02,39.07,5.54c7.4,4.05,13.03,11.46,14,19.95
			c0.9,11.18-0.68,22.51,1.14,33.63c0.64,3.13,1.65,7.34,5.31,8.07c1.82,0.69,4.8,0.42,5.23,2.92c1.32,6.34-3.15,11.97-7.75,15.73
			c-8.53,6.96-20.88,10.74-31.38,6.15c-4.36-1.61-6.39-7.01-11.1-7.69c-4.83,1.72-8.52,5.78-13.48,7.34
			c-10.87,3.83-23.49,3.05-33.79-2.12c-11.89-5.87-16.8-22.75-9.22-33.79c6.5-9.76,18.06-14.68,29.23-16.73
			c6.67-1.24,13.49-1.48,20.26-1.16c2.14,0.4,3.05-1.89,2.98-3.63c0.17-5.27,0.38-10.99-2.31-15.72c-2.46-4.36-8.82-5.07-12.62-2.11
			c-4.73,3.62-7.09,9.41-11.62,13.24c-4.4,3.94-10.95,5.39-16.58,3.57c-3.84-1.26-7.24-4.76-7.11-9
			c-0.02-5.79,4.45-10.31,8.97-13.31C-401.081,136.774-390.261,133.754-379.511,131.924z M-376.561,183.864
			c-7.29,2.07-9.73,11.68-6.1,17.8c3.1,4.52,11.5,3.52,12.96-1.98c0.99-4.43,1.14-9.08,0.92-13.6
			C-369.481,182.524-373.961,183.104-376.561,183.864z"/>
	</g>
	<path fill="#0066B3" d="M-306.621,131.794c12.99-1.15,26.14-1.51,39.12-0.02c4.58,0.75,9.52,1.49,13.27,4.47
		c2.78,2.07,2.85,6.66,0.05,8.74c-2.48,2.25-6.68,4.44-5.5,8.48c1.79,5.6,4.86,10.99,9.17,15.04c2.48,2.47,6.06,0.16,7.99-1.88
		c4.1-4.57,6.91-10.47,7.68-16.57c-0.93-3.88-5.32-6.01-5.77-10.13c-0.78-3.36,1.82-6.4,4.9-7.35c7.59-2.69,15.81-1.7,23.71-1.75
		c5.15,0.19,10.73,0.14,15.27,2.94c3.2,1.8,3.83,7.2,0.54,9.22c-3.39,2.07-7.47,2.86-10.58,5.4c-3.14,2.36-4.77,6.02-6.62,9.36
		c-6.61,12.03-13.27,24.02-19.88,36.04c-4.84,8.42-8.88,17.38-15.12,24.91c-2.71,3.28-6,6.93-10.56,7.17
		c-4.52,0.57-8.61-2.21-11.22-5.66c-4.44-5.78-7.85-12.24-11.58-18.48c-8.13-13.88-16.28-27.75-24.39-41.64
		c-1.81-3.09-3.5-6.42-6.48-8.54c-2.91-2.22-6.69-3-9.46-5.41c-2.56-2.77-2.85-8.21,0.67-10.35
		C-317.001,133.034-311.671,132.464-306.621,131.794z"/>
	<g>
		<path fill="#0066B3" d="M-189.071,144.004c12.56-9.91,29.09-14.32,44.96-12.9c11.03,0.88,22.05,5.15,29.91,13.12
			c6.24,6.33,10.81,14.84,10.85,23.89c-0.07,3.86-0.67,8.25-3.74,10.95c-2.46,2.14-5.89,2.33-8.99,2.32c-13-0.06-26,0.02-39-0.05
			c-2.17-0.03-4.31,0.17-6.43,0.52c-0.45,9.03,7.65,15.75,15.68,17.93c9.55,2.61,19.17-1.46,27.46-5.94
			c3.57-2.35,8.26-0.22,10.15,3.27c1.99,3.32,0.72,7.5-1.28,10.49c-3.77,5.35-9.49,8.92-15.29,11.71c-9.73,4.5-20.5,7.2-31.27,6.48
			c-13.18-0.62-26.54-5.27-36.05-14.65c-10.97-10.5-16.11-26.65-13.29-41.56C-203.411,159.384-197.161,150.374-189.071,144.004z
			 M-155.811,147.404c-5.25,2.25-9.35,8.71-6.86,14.34c1.46,2.77,5.06,2.12,7.67,2.17c4.09-0.35,8.53,0.39,12.36-1.43
			c3.19-1.83,2.57-6.23,1.42-9.13C-143.331,147.784-150.411,144.914-155.811,147.404z"/>
	</g>
	<path fill="#0066B3" d="M-751.511,134.884c3.25-0.37,6.99-1.29,9.88,0.81c2.39,1.62,2.72,4.74,2.72,7.39
		c-0.02,15.99-0.01,31.99-0.02,47.98c0.06,4.19,0.3,8.66,2.54,12.35c1.53,2.47,4.6,3.47,6.15,5.92c1.06,2.71,0.83,6.14-1.19,8.36
		c-2.42,2.67-6,3.85-9.4,4.7c-8.94,2.04-18.17,1.56-27.27,1.55c-6.57-0.24-13.24-0.55-19.58-2.43c-2.66-0.85-5.53-2.2-6.76-4.87
		c-1.1-2.74-1.07-6.5,1.69-8.24c3.37-2.69,8.91-4.21,9.4-9.19c1.17-9.63,1.11-19.39,0.4-29.06c-0.38-3.64-0.62-8.04-3.96-10.32
		c-2.9-2.27-7.77-3.36-8.13-7.71c-0.5-4.16,3.74-6.52,6.88-8.14C-776.621,138.764-763.941,136.804-751.511,134.884z"/>
	<g>
		<path fill="#0066B3" d="M-682.581,134.844c11.9-1.41,24.47,0,35.11,5.78c9.41,5.1,16.96,14.1,19.16,24.7
			c0.75,4.57,0.81,9.69-1.67,13.77c-1.68,2.74-5.02,3.84-8.08,3.86c-14.32,0.1-28.65-0.06-42.97,0.06c-1.56,0.2-3.66-0.12-4.63,1.43
			c-0.22,4.99,3.43,9.18,7.28,11.91c6.1,4.4,14,6.19,21.38,4.54c5.52-0.95,10.37-3.84,15.37-6.17c4.7-2.41,10.35,2.4,10.06,7.3
			c-0.26,4.72-3.57,8.51-7.02,11.41c-8.48,6.72-19.06,10.41-29.66,12.04c-14.94,1.67-30.98-1.77-42.66-11.58
			c-10.17-8.43-16.14-21.55-15.96-34.74c-0.1-10.01,3.82-19.92,10.54-27.3C-707.731,142.194-695.291,136.474-682.581,134.844z
			 M-678.741,150.464c-4.84,2.27-8.54,8.27-6.3,13.53c1.24,2.66,4.58,2.16,6.99,2.21c4.16-0.32,8.68,0.45,12.54-1.5
			c2.83-1.82,2.24-5.77,1.26-8.47C-666.161,150.534-673.451,147.804-678.741,150.464z"/>
	</g>
	<path fill="#0066B3" d="M-1129.701,275.154c-0.03-43.15-0.02-86.3-0.01-129.45c26.64,0.02,53.28-0.02,79.91,0.02
		C-1076.401,188.884-1103.041,232.024-1129.701,275.154z"/>
</g>
<g>
	<g>
		<path fill="#ED1A3B" d="M143.05,22.164c23.79-10.14,50.84-11.97,75.87-5.66c39.19,9.61,72.5,38.94,88.21,75.95
			c-78.12,0.02-156.23,0.02-234.35,0C86.16,61.264,111.7,35.324,143.05,22.164z"/>
		<path fill="#ED1A3B" d="M68.6,102.584c80.21,0.02,160.41,0,240.62,0.02c4.63,13.9,6.76,28.58,6.4,43.22
			c-16.61,0.06-33.21,0.03-49.82,0.02c2.22-2.92,4.46-5.83,6.69-8.74c-31.29-0.02-62.57,0-93.86-0.01c0-5.71,0-11.42,0.01-17.13
			c-35.16-5.51-70.33-10.98-105.49-16.46C71.62,103.244,70.11,102.924,68.6,102.584z"/>
		<path fill="#ED1A3B" d="M259.62,156.384c18.66-0.18,37.31,0.11,55.97-0.15c0.24,11.13-2.36,22.15-6.36,32.48
			c-22.99,0.04-45.98,0.02-68.97,0.01C246.67,177.914,253.25,167.214,259.62,156.384z"/>
		<path fill="#ED1A3B" d="M236.12,197.094c22.96,0,45.92-0.01,68.88,0.01c-4.71,11.72-11.54,22.46-19.36,32.34
			c-23.71,0.03-47.41,0.02-71.12,0.01C221.7,218.654,228.88,207.854,236.12,197.094z"/>
		<path fill="#ED1A3B" d="M210.27,237.964c22.28-0.02,44.56-0.03,66.84,0c-23.75,24.19-57.62,37.91-91.52,37.01
			C193.77,262.604,202.08,250.324,210.27,237.964z"/>
	</g>
	<path fill="#0066B3" d="M8.34,102.094c54.06,8.53,108.1,17.21,162.15,25.79c0,48.93,0.02,97.87-0.01,146.8
		C116.38,217.204,62.36,159.654,8.34,102.094z"/>
	<path fill="#0066B3" d="M178.37,275.154c-0.03-43.15-0.02-86.3-0.01-129.45c26.64,0.02,53.28-0.02,79.91,0.02
		C231.67,188.884,205.03,232.024,178.37,275.154z"/>
</g>
</svg>
